<?xml version="1.0" encoding="utf-8"?>
<!-- Generator: Adobe Illustrator 27.0.0, SVG Export Plug-In . SVG Version: 6.00 Build 0)  -->
<svg version="1.1" id="Layer_1" xmlns="http://www.w3.org/2000/svg" xmlns:xlink="http://www.w3.org/1999/xlink" x="0px" y="0px"
	 viewBox="0 0 220.1 70.5" style="enable-background:new 0 0 220.1 70.5;" xml:space="preserve">
<style type="text/css">
	.st0{fill:#4164E3;}
</style>
<g id="_x33_7b775ad-15e5-44e2-83c2-a9e07bff0fe0" transform="matrix(4.187316602533911,0,0,4.187316602533911,119.26428842976817,113.25629541509723)">
	<path class="st0" d="M-1-13.2v-10h-1.9v4.2h-3.7v-4.2h-2v10h2v-4h3.7v4H-1z M3-23.2C3-24,2.8-24.2,2-24.2c-0.9,0-1.1,0.2-1.1,1.1
		c0,0.9,0.2,1.1,1.1,1.1C2.8-22.1,3-22.3,3-23.2z M2.9-13.2v-7.7H1.1v7.7H2.9z M9.1-21.2c-0.3-0.2-0.5-0.2-0.8-0.1l-1.9,0.8L6-21.2
		H4.6v8h1.8v-5.7c0.9-0.5,1.7-0.7,2.2-0.5L9.1-21.2z M16.4-16.8c0-0.4,0-0.8,0-1.2c0-1.9-0.7-3.4-3-3.4s-3.4,1.1-3.4,3.8
		c0,3.5,1,4.5,3.5,4.5c1.7,0,3-0.8,3-2.9h-1.6c0,0.4-0.3,1.2-1.3,1.2c-1.5,0-1.7-0.8-1.7-2.1H16.4z M11.7-18c0-1.3,0.7-1.8,1.6-1.8
		c1,0,1.4,0.5,1.4,1.8H11.7z M24-16.8c0-0.4,0-0.8,0-1.2c0-1.9-0.7-3.4-3-3.4s-3.5,1.1-3.5,3.8c0,3.5,1,4.5,3.5,4.5
		c1.7,0,3-0.8,3-2.9h-1.6c0,0.4-0.3,1.2-1.3,1.2c-1.5,0-1.7-0.8-1.7-2.1H24z M19.4-18c0-1.3,0.7-1.8,1.6-1.8c1,0,1.4,0.5,1.4,1.8
		H19.4z"/>
</g>
<g id="_x34_9e064ff-6e3f-445b-9c30-445d17e10a41" transform="matrix(2.2042297276401888,0,0,2.2042297276401888,40,114.73232435775698)">
	<path class="st0" d="M-18.1-20.1h32v-32h-32V-20.1z M1.2-39.5l6.9-6.9v20.9H1.2L1.2-39.5z M-12.5-46.5l6.9,6.9v13.9h-6.9V-46.5z"/>
</g>
</svg>
