<svg xmlns="http://www.w3.org/2000/svg" version="1.1" xmlns:xlink="http://www.w3.org/1999/xlink" xmlns:svgjs="http://svgjs.com/svgjs" width="1400" height="1400" preserveAspectRatio="none" viewBox="0 0 1400 1400">
    <g mask="url(&quot;#SvgjsMask1096&quot;)" fill="none">
        <rect width="1400" height="1400" x="0" y="0" fill="rgba(51, 84, 204, 1)"></rect>
        <path d="M207 61L992 -724" stroke-width="8" stroke="url(#SvgjsLinearGradient1097)" stroke-linecap="round" class="TopRight"></path>
        <path d="M55 1251L441 865" stroke-width="8" stroke="url(#SvgjsLinearGradient1098)" stroke-linecap="round" class="BottomLeft"></path>
        <path d="M641 385L1000 26" stroke-width="10" stroke="url(#SvgjsLinearGradient1098)" stroke-linecap="round" class="BottomLeft"></path>
        <path d="M1281 766L2108 -61" stroke-width="8" stroke="url(#SvgjsLinearGradient1098)" stroke-linecap="round" class="BottomLeft"></path>
        <path d="M445 1128L1310 263" stroke-width="6" stroke="url(#SvgjsLinearGradient1098)" stroke-linecap="round" class="BottomLeft"></path>
        <path d="M322 476L895 -97" stroke-width="6" stroke="url(#SvgjsLinearGradient1098)" stroke-linecap="round" class="BottomLeft"></path>
        <path d="M625 1089L1047 667" stroke-width="10" stroke="url(#SvgjsLinearGradient1097)" stroke-linecap="round" class="TopRight"></path>
        <path d="M350 771L1119 2" stroke-width="6" stroke="url(#SvgjsLinearGradient1097)" stroke-linecap="round" class="TopRight"></path>
        <path d="M1184 192L344 1032" stroke-width="6" stroke="url(#SvgjsLinearGradient1098)" stroke-linecap="round" class="BottomLeft"></path>
        <path d="M445 911L929 427" stroke-width="8" stroke="url(#SvgjsLinearGradient1097)" stroke-linecap="round" class="TopRight"></path>
        <path d="M769 413L393 789" stroke-width="6" stroke="url(#SvgjsLinearGradient1098)" stroke-linecap="round" class="BottomLeft"></path>
        <path d="M972 672L473 1171" stroke-width="6" stroke="url(#SvgjsLinearGradient1098)" stroke-linecap="round" class="BottomLeft"></path>
        <path d="M125 790L-442 1357" stroke-width="8" stroke="url(#SvgjsLinearGradient1098)" stroke-linecap="round" class="BottomLeft"></path>
        <path d="M481 713L1012 182" stroke-width="10" stroke="url(#SvgjsLinearGradient1098)" stroke-linecap="round" class="BottomLeft"></path>
        <path d="M478 424L1343 -441" stroke-width="10" stroke="url(#SvgjsLinearGradient1097)" stroke-linecap="round" class="TopRight"></path>
        <path d="M724 672L-67 1463" stroke-width="6" stroke="url(#SvgjsLinearGradient1097)" stroke-linecap="round" class="TopRight"></path>
        <path d="M604 841L1310 135" stroke-width="8" stroke="url(#SvgjsLinearGradient1097)" stroke-linecap="round" class="TopRight"></path>
        <path d="M465 406L-109 980" stroke-width="10" stroke="url(#SvgjsLinearGradient1098)" stroke-linecap="round" class="BottomLeft"></path>
        <path d="M916 819L391 1344" stroke-width="6" stroke="url(#SvgjsLinearGradient1097)" stroke-linecap="round" class="TopRight"></path>
        <path d="M914 1192L1434 672" stroke-width="8" stroke="url(#SvgjsLinearGradient1098)" stroke-linecap="round" class="BottomLeft"></path>
        <path d="M845 13L1839 -981" stroke-width="6" stroke="url(#SvgjsLinearGradient1097)" stroke-linecap="round" class="TopRight"></path>
        <path d="M1286 727L240 1773" stroke-width="10" stroke="url(#SvgjsLinearGradient1098)" stroke-linecap="round" class="BottomLeft"></path>
        <path d="M1334 909L1741 502" stroke-width="10" stroke="url(#SvgjsLinearGradient1098)" stroke-linecap="round" class="BottomLeft"></path>
        <path d="M608 558L190 976" stroke-width="6" stroke="url(#SvgjsLinearGradient1097)" stroke-linecap="round" class="TopRight"></path>
        <path d="M814 13L-73 900" stroke-width="8" stroke="url(#SvgjsLinearGradient1098)" stroke-linecap="round" class="BottomLeft"></path>
        <path d="M1323 1125L957 1491" stroke-width="6" stroke="url(#SvgjsLinearGradient1097)" stroke-linecap="round" class="TopRight"></path>
        <path d="M1119 386L607 898" stroke-width="8" stroke="url(#SvgjsLinearGradient1098)" stroke-linecap="round" class="BottomLeft"></path>
        <path d="M609 162L-305 1076" stroke-width="8" stroke="url(#SvgjsLinearGradient1098)" stroke-linecap="round" class="BottomLeft"></path>
        <path d="M504 412L-375 1291" stroke-width="6" stroke="url(#SvgjsLinearGradient1097)" stroke-linecap="round" class="TopRight"></path>
        <path d="M1024 902L2053 -127" stroke-width="6" stroke="url(#SvgjsLinearGradient1098)" stroke-linecap="round" class="BottomLeft"></path>
        <path d="M480 636L1374 -258" stroke-width="8" stroke="url(#SvgjsLinearGradient1097)" stroke-linecap="round" class="TopRight"></path>
        <path d="M723 1276L122 1877" stroke-width="10" stroke="url(#SvgjsLinearGradient1097)" stroke-linecap="round" class="TopRight"></path>
        <path d="M521 517L1521 -483" stroke-width="8" stroke="url(#SvgjsLinearGradient1098)" stroke-linecap="round" class="BottomLeft"></path>
        <path d="M660 1163L-373 2196" stroke-width="10" stroke="url(#SvgjsLinearGradient1098)" stroke-linecap="round" class="BottomLeft"></path>
        <path d="M758 1341L-219 2318" stroke-width="8" stroke="url(#SvgjsLinearGradient1098)" stroke-linecap="round" class="BottomLeft"></path>
        <path d="M290 585L1066 -191" stroke-width="10" stroke="url(#SvgjsLinearGradient1097)" stroke-linecap="round" class="TopRight"></path>
        <path d="M1145 305L1731 -281" stroke-width="10" stroke="url(#SvgjsLinearGradient1097)" stroke-linecap="round" class="TopRight"></path>
        <path d="M1153 1028L1895 286" stroke-width="8" stroke="url(#SvgjsLinearGradient1097)" stroke-linecap="round" class="TopRight"></path>
        <path d="M47 631L-935 1613" stroke-width="10" stroke="url(#SvgjsLinearGradient1097)" stroke-linecap="round" class="TopRight"></path>
        <path d="M369 615L1192 -208" stroke-width="8" stroke="url(#SvgjsLinearGradient1097)" stroke-linecap="round" class="TopRight"></path>
        <path d="M1237 150L284 1103" stroke-width="10" stroke="url(#SvgjsLinearGradient1097)" stroke-linecap="round" class="TopRight"></path>
        <path d="M1315 211L737 789" stroke-width="6" stroke="url(#SvgjsLinearGradient1097)" stroke-linecap="round" class="TopRight"></path>
        <path d="M780 168L-214 1162" stroke-width="8" stroke="url(#SvgjsLinearGradient1097)" stroke-linecap="round" class="TopRight"></path>
        <path d="M423 256L777 -98" stroke-width="6" stroke="url(#SvgjsLinearGradient1097)" stroke-linecap="round" class="TopRight"></path>
        <path d="M239 1170L-333 1742" stroke-width="10" stroke="url(#SvgjsLinearGradient1097)" stroke-linecap="round" class="TopRight"></path>
        <path d="M433 1147L1156 424" stroke-width="10" stroke="url(#SvgjsLinearGradient1098)" stroke-linecap="round" class="BottomLeft"></path>
        <path d="M229 752L1068 -87" stroke-width="6" stroke="url(#SvgjsLinearGradient1098)" stroke-linecap="round" class="BottomLeft"></path>
        <path d="M199 259L-176 634" stroke-width="10" stroke="url(#SvgjsLinearGradient1098)" stroke-linecap="round" class="BottomLeft"></path>
        <path d="M108 374L1149 -667" stroke-width="8" stroke="url(#SvgjsLinearGradient1098)" stroke-linecap="round" class="BottomLeft"></path>
        <path d="M168 1306L-545 2019" stroke-width="6" stroke="url(#SvgjsLinearGradient1098)" stroke-linecap="round" class="BottomLeft"></path>
    </g>
    <defs>
        <mask id="SvgjsMask1096">
            <rect width="1400" height="1400" fill="#ffffff"></rect>
        </mask>
        <linearGradient x1="0%" y1="100%" x2="100%" y2="0%" id="SvgjsLinearGradient1097">
            <stop stop-color="rgba(84, 119, 242, 0)" offset="0"></stop>
            <stop stop-color="rgba(84, 119, 242, 0.8)" offset="1"></stop>
        </linearGradient>
        <linearGradient x1="100%" y1="0%" x2="0%" y2="100%" id="SvgjsLinearGradient1098">
            <stop stop-color="rgba(84, 119, 242, 0)" offset="0"></stop>
            <stop stop-color="rgba(84, 119, 242, 0.8)" offset="1"></stop>
        </linearGradient>
    </defs>
</svg>